<?xml version="1.0" encoding="utf-8"?>
<!-- Generator: Adobe Illustrator 21.0.0, SVG Export Plug-In . SVG Version: 6.00 Build 0)  -->
<svg version="1.1" id="Layer_1" xmlns="http://www.w3.org/2000/svg" xmlns:xlink="http://www.w3.org/1999/xlink" x="0px" y="0px"
	 viewBox="0 0 512 512" style="enable-background:new 0 0 512 512;" xml:space="preserve">
<g>
	<path d="M137.1,35.8C61.5,35.8,0,98.1,0,173c0,26.1,11.9,48.5,22.9,64.9s22.2,27.4,22.2,27.4l210.9,211l210.9-211
		c0,0,45.1-40,45.1-92.3c0-74.9-61.5-137.1-137.1-137.1c-28.7,0-54.4,9.6-75.1,21l-6,3.3l-37.6,103.7h66.2L256,277.5v-77.1h-64.9
		l28.3-139.7l-12.3-6.3C187.4,44.2,163.7,35.8,137.1,35.8z M137.1,72.4c14.2,0,27.4,5.6,40.4,11L146.4,237h73v109.7H258l107.7-184.8
		v-34.6h-57.5l14.5-39.9c16-8.1,33.6-14.9,52.1-14.9c55.6,0,100.6,45.7,100.6,100.6c0,28.2-34.2,66.2-34.2,66.2l0,0L256,424.4
		L70.8,239.2l0,0c0,0-8.6-8.5-17.5-21.7S36.6,187.1,36.6,173C36.6,118,81.5,72.4,137.1,72.4z"/>
</g>
</svg>
